<svg width="225" height="250" viewBox="0 0 225 250" fill="none" xmlns="http://www.w3.org/2000/svg">
<path d="M150 0C191.421 0 225 33.5786 225 75C225 114.14 195.018 146.277 156.769 149.698L107.07 100H150C163.807 100 175 88.8071 175 75C175 61.1929 163.807 50 150 50H57.0703L7.07031 0H150ZM142.564 149.635C113.178 146.743 88.7723 126.891 79.2676 100H92.9297L142.564 149.635Z" fill="url(#paint0_linear_3_41)"/>
<path d="M41.9297 250H0V208.07L41.9297 250ZM50 243.93L0 193.93V100H92.9297L142.93 150H50V243.93ZM150 142.93L107.07 100H150V142.93Z" fill="url(#paint1_linear_3_41)"/>
<path d="M156.5 149.5L107 100H156L156.5 149.5Z" fill="url(#paint2_linear_3_41)"/>
<defs>
<linearGradient id="paint0_linear_3_41" x1="131.75" y1="100" x2="131.75" y2="149.5" gradientUnits="userSpaceOnUse">
<stop/>
<stop offset="1" stop-color="#6800DE"/>
</linearGradient>
<linearGradient id="paint1_linear_3_41" x1="75" y1="100" x2="75" y2="250" gradientUnits="userSpaceOnUse">
<stop/>
<stop offset="1" stop-color="#6800DE"/>
</linearGradient>
<linearGradient id="paint2_linear_3_41" x1="131.75" y1="100" x2="131.75" y2="149.5" gradientUnits="userSpaceOnUse">
<stop/>
<stop offset="1" stop-color="#6800DE"/>
</linearGradient>
</defs>
</svg>
